<?xml version="1.0" encoding="UTF-8"?><svg id="Layer_2" xmlns="http://www.w3.org/2000/svg" viewBox="0 0 1130.8199 187.304"><g id="Components"><g id="_413ef9b2-e44b-40c1-a718-9f83bea7e6ca_5"><path d="M1032.79,50.0029c0-26.4801-24.16-48.1778-54.7681-50.0029v187.304c30.608-1.842,54.7681-23.523,54.7681-50.003,0-18.724-12.1-35.048-29.9901-43.649,17.89-8.6014,29.9901-24.9254,29.9901-43.6491Z" style="fill:#FFEF7B;"/><path d="M1036.27,13.1133v161.7867c36.5699-2.974,65.4299-38.038,65.4299-80.8931s-28.88-77.9195-65.4299-80.8936Z" style="fill:#FFEF7B;"/><path d="M1105.1801,34.7773v118.4587c15.59-13.552,25.6399-35.03,25.6399-59.2291s-10.0699-45.6938-25.6399-59.2296Z" style="fill:#FFEF7B;"/><path d="M38.5626,32.6653H0v121.9737h37.6839c22.5765,0,36.6192-12.319,36.6192-32.158,0-23.2014-11.0517-28.1696-20.6839-29.8933l-2.0954-.3717v-4.343l1.7913-.5576c11.5248-3.5656,16.8986-11.9642,16.8986-26.4125,0-23.3539-17.2028-28.2545-31.6342-28.2545l-.0169.0169ZM59.0775,119.457c0,15.867-7.7396,24.959-21.2247,24.959H15.2087v-49.0231h21.3937c13.654,0,22.4582,9.4461,22.4582,24.0641h.0169ZM33.7634,86.217H15.2087v-43.328h16.7634c9.8688,0,22.999,2.1461,22.999,20.6839,0,13.9582-8.1282,22.6441-21.2246,22.6441h.0169Z" style="fill:#FFEF7B;"/><path d="M143.925,123.732l7.824,31.144h16.375l-32.242-122.4307h-22.459l-34.8107,122.4307h16.324l8.1787-31.144h40.81ZM121.974,44.8996h4.005l15.665,67.2564h-35.926l16.239-67.2564h.017Z" style="fill:#FFEF7B;"/><path d="M210.81,32.2083h-34.034v122.8697h34.034c36.146,0,42.753-20.684,42.753-61.4433s-6.607-61.4433-42.753-61.4433v.0169ZM211.706,143.959h-18.809V43.3445h18.809c21.545,0,25.753,18.4532,25.753,50.3071,0,37.1434-6.743,50.3074-25.753,50.3074Z" style="fill:#FFEF7B;"/><path d="M302.722,31.9883h-34.254v123.3257h34.254c36.332,0,42.973-20.768,42.973-61.6628s-6.641-61.6629-42.973-61.6629ZM303.6,143.739h-18.588V43.5638h18.588c21.36,0,25.534,18.3688,25.534,50.0874,0,36.9738-6.675,50.0878-25.534,50.0878Z" style="fill:#FFEF7B;"/><path d="M424.392,97.8768v-13.7892h-45.559v-38.5288h48.398v-13.7893h-65.398v123.7655h66.817v-13.789h-49.817v-43.8692h45.559Z" style="fill:#FFEF7B;"/><path d="M479.582,29.0494c-29.707,0-40.759,17.507-40.759,64.6033s11.001,64.6033,40.574,64.6033c32.833,0,37.734-27.545,37.734-43.953v-1.251h-17.439v.71c0,21.259-6.827,32.023-20.279,32.023-17.084,0-23.134-13.789-23.134-52.673s5.83-51.6083,23.134-51.6083c5.171-.2028,9.43,1.3012,12.674,4.4105,5.712,5.4921,6.895,14.8539,6.895,21.7316v.7098h17.439v-.8957c0-9.5139,0-38.4443-36.839-38.4443v.0338Z" style="fill:#FFEF7B;"/><path d="M545.656,31.3281h-17.896v124.6609h17.896V31.3281Z" style="fill:#FFEF7B;"/><path d="M595.591,158.695c27.224,0,41.013-12.539,41.013-37.279,0-16.864-7.283-26.3445-25.162-32.7152l-13.705-4.9851c-14.347-5.4752-19.687-11.5587-19.687-22.4413,0-12.0825,6.743-19.2982,18.065-19.2982,12.454,0,18.774,6.489,18.774,19.2982v1.6898h18.335v-1.8757c0-8.0269,0-32.4791-34.963-32.4791-24.131,0-38.529,13.0795-38.529,34.9632,0,17.2703,7.267,26.8011,25.889,33.9661l13.8571,4.7993c13.164,3.904,18.808,10.95,18.808,23.523,0,9.379-6.32,19.484-20.194,19.484s-21.799-8.162-21.799-24.283v-2.231h-18.335v2.045c0,17.253,6.523,37.819,37.633,37.819Z" style="fill:#FFEF7B;"/><path d="M667.258,30.875h-18.774v125.54h18.774V30.875Z" style="fill:#FFEF7B;"/><path d="M721.755,28.168c-28.676,0-41.469,20.1938-41.469,65.482s12.793,65.482,41.469,65.482,41.47-20.194,41.47-65.482-12.793-65.482-41.47-65.482ZM721.755,144.887c-11.541,0-22.238-6.27-22.238-51.7777s10.697-50.7127,22.238-50.7127,22.239,6.1511,22.239,50.7127-10.697,51.7777-22.239,51.7777Z" style="fill:#FFEF7B;"/><path d="M832.999,156.869h24.216V30.4336h-18.605v94.6664h-.879l-.067-.203-36.755-94.4634h-24.216v126.4354h18.606V59.7189h.862l36.838,97.1501Z" style="fill:#FFEF7B;"/><path d="M923.356,87.7866l-13.705-4.9851c-13.519-5.154-19.045-10.6799-19.045-21.5288,0-13.5188,8.365-18.3349,17.085-18.3349,12.64,0,17.794,6.7594,17.794,18.3349v2.67h20.278v-2.839c0-13.164-3.379-33.4592-35.943-33.4592-23.844,0-39.509,12.8092-39.509,35.9433,0,18.1491,8.01,27.7644,26.514,34.8787l13.874,4.7995c11.389,3.379,18.149,9.26,18.149,22.593,0,9.43-6.405,18.504-19.2141,18.504-14.06,0-20.819-7.824-20.819-23.303v-3.211h-20.278v3.025c0,17.794,7.114,38.799,38.613,38.799,25.618,0,41.993-11.204,41.993-38.258,0-17.44-7.824-27.2238-25.804-33.6284h.017Z" style="fill:#FFEF7B;"/></g></g></svg>