<?xml version="1.0" encoding="utf-8"?>
<!-- Generator: Adobe Illustrator 27.9.0, SVG Export Plug-In . SVG Version: 6.00 Build 0)  -->
<svg version="1.1" id="Layer_1" xmlns="http://www.w3.org/2000/svg" xmlns:xlink="http://www.w3.org/1999/xlink" x="0px" y="0px"
	 viewBox="0 0 204.7 47.7" style="enable-background:new 0 0 204.7 47.7;" xml:space="preserve">
<style type="text/css">
	.st0{fill:#E21F27;}
</style>
<path class="st0" d="M0.4,30.3c0,0,14.7-30.3,68.8-29.8L47.1,30.4h-14l13.6-19c0,0-18.8,1.7-32.3,19H0.4z"/>
<path class="st0" d="M72.7,0.4l-6.8,9.2h12.7l1.1-1.5l19.7,0c0,0,3.3,0.1-0.6,1.5c-3,0.5-6.1,1-9.1,1.5c-3.5,0.6-7.1,1.2-10.6,1.8
	c-3.5,0.6-7,1-10.5,1.7c-0.6,0.1-1.3,0.3-1.9,0.5c-1.4,0.5-2.8,1.2-4.1,2.1C58.3,20,54.8,24,52,28.3c-0.5,0.7-0.9,1.4-1.3,2.1h50.1
	l5.6-7.7H71c0,0,0.9-1.4,2.8-1.6l6.1-1.1l9.2-1.3l8.5-1.2c4.9-0.6,10.3-1.6,13.6-5.5c1.5-1.7,2.7-4.3,1.7-6.5c-1.7-4-6.6-4.7-10.5-5
	c-3.2-0.2-6.4,0-9.5,0C93,0.4,72.7,0.4,72.7,0.4z"/>
<path class="st0" d="M112.3,0.4c0,0,7.2,7.6,7.2,7.6l25.2,0c0,0,4.4-0.5,4.1,2.1c0,0,0.3,2.3-4.1,2.1L116.2,12l25.9,18.4l15.1,0
	l-14.6-10.3c2.3,0.1,4.6,0,6.9-0.2c5.4-0.6,11.7-5.6,10.7-11.5c-0.6-3.4-3.1-5.9-6.3-6.9c-3.9-1.2-7.8-0.9-11.7-0.9
	c-2.7,0-5.5,0-8.2,0c-5.9,0-11.8-0.1-17.7-0.1c-1,0-2,0-2.9,0C113.2,0.4,112.4,0.5,112.3,0.4z"/>
<path class="st0" d="M173.2,0.4c0,0,14.4-0.1,14.4-0.1l-14.4,18.4c0,0-2.9,3.7,2.9,3.7l28.3,0.1l-6.1,7.8c-4,0-8.1,0-12.1,0
	c-6.2,0-12.4,0-18.6,0c-3.8,0-10.8-0.1-11.2-5.4c-0.3-3.9,3.3-7.2,5.6-10c2.2-2.8,4.4-5.6,6.5-8.4c1.1-1.5,2.3-2.9,3.4-4.4
	C172,2,172.9,0.4,173.2,0.4z"/>
<g>
	<path class="st0" d="M6.4,42.2H2.6l-1,2.5H0.6l3.3-8.4h1.2l3.3,8.4H7.4L6.4,42.2z M3,41.3h3.1l-1.6-4L3,41.3z"/>
	<path class="st0" d="M9.2,44.4v-8.1h1V39c0.5-0.1,1-0.2,1.4-0.2c1.9,0,3.1,1.3,3.1,3v0c0,1.7-1.2,3-3.1,3
		C10.7,44.8,10,44.7,9.2,44.4z M13.7,41.8L13.7,41.8c0-1.2-0.7-2.1-2.1-2.1c-0.5,0-1,0.1-1.4,0.2v3.8c0.4,0.1,0.9,0.2,1.4,0.2
		C13,43.9,13.7,43,13.7,41.8z"/>
	<path class="st0" d="M15.8,42.7v-3.7h1v3.7c0,1,0.6,1.4,1.5,1.4c0.4,0,0.9-0.1,1.5-0.2v-4.8h1v5.6c-1,0.2-2,0.3-2.6,0.3
		C16.9,44.8,15.8,44.3,15.8,42.7z"/>
	<path class="st0" d="M30.8,40.5L30.8,40.5c0,2.6-1.6,4.2-4.3,4.2H24v-8.4h2.5C29.3,36.3,30.8,37.9,30.8,40.5z M29.8,40.5
		c0-2-1.2-3.2-3.3-3.2H25v6.5h1.5C28.6,43.7,29.8,42.5,29.8,40.5L29.8,40.5z"/>
	<path class="st0" d="M37,40.9v3.8h-1V41c0-1-0.6-1.4-1.5-1.4c-0.4,0-0.9,0.1-1.5,0.1v4.9h-1v-8.4h1v2.6c0.6-0.1,1.1-0.1,1.5-0.1
		C35.9,38.7,37,39.3,37,40.9z"/>
	<path class="st0" d="M43.3,40.9v3.6c-0.8,0.1-1.8,0.2-2.5,0.2c-1.8,0-2.8-0.5-2.8-1.8v0c0-1.2,0.9-1.8,2.6-1.8c0.5,0,1,0,1.6,0.1
		V41c0-0.9-0.5-1.3-1.6-1.3c-0.6,0-1.4,0.2-2.1,0.5l0.2-1c0.5-0.2,1.4-0.4,2.1-0.4C42.3,38.8,43.3,39.3,43.3,40.9z M40.9,43.9
		c0.4,0,0.9-0.1,1.4-0.1v-1.5c-0.5-0.1-1-0.1-1.4-0.1c-1.1,0-1.8,0.2-1.8,0.9v0C39.1,43.6,39.7,43.9,40.9,43.9z"/>
	<path class="st0" d="M44.5,44.4v-8.1h1V39c0.5-0.1,1-0.2,1.4-0.2c1.9,0,3.1,1.3,3.1,3v0c0,1.7-1.2,3-3.1,3
		C46,44.8,45.3,44.7,44.5,44.4z M49,41.8L49,41.8c0-1.2-0.7-2.1-2.1-2.1c-0.5,0-1,0.1-1.4,0.2v3.8c0.4,0.1,0.9,0.2,1.4,0.2
		C48.3,43.9,49,43,49,41.8z"/>
	<path class="st0" d="M51,37.6c0-0.3,0.2-0.5,0.6-0.5c0.4,0,0.6,0.2,0.6,0.5c0,0.4-0.2,0.5-0.6,0.5C51.3,38.1,51,37.9,51,37.6z
		 M51.1,38.9h1v5.7h-1V38.9z"/>
	<path class="st0" d="M60.6,42.2h-3.8l-1,2.5h-1.1l3.3-8.4h1.2l3.3,8.4h-1.1L60.6,42.2z M57.2,41.3h3.1l-1.6-4L57.2,41.3z"/>
	<path class="st0" d="M63.3,42.7v-3.7h1v3.7c0,1,0.6,1.4,1.5,1.4c0.4,0,0.9-0.1,1.5-0.2v-4.8h1v5.6c-1,0.2-2,0.3-2.6,0.3
		C64.4,44.8,63.3,44.3,63.3,42.7z"/>
	<path class="st0" d="M70.3,42.9v-3h-1.1v-0.9h1.1V37h1v1.9h2.3v0.9h-2.3v2.6c0,0.9,0.4,1.2,1.3,1.2h1v1h-1.4
		C70.8,44.7,70.3,44.1,70.3,42.9z"/>
	<path class="st0" d="M74.3,41.8L74.3,41.8c0-1.7,1.3-3.1,3.1-3.1c1.8,0,3.1,1.3,3.1,3v0c0,1.7-1.3,3-3.1,3
		C75.6,44.8,74.3,43.5,74.3,41.8z M79.4,41.8L79.4,41.8c0-1.2-0.8-2.1-2.1-2.1c-1.2,0-2.1,0.9-2.1,2.1v0c0,1.2,0.8,2.1,2.1,2.1
		C78.6,43.9,79.4,43,79.4,41.8z"/>
	<path class="st0" d="M81.5,39c0.9-0.2,2-0.3,2.6-0.3c1.4,0,2.5,0.5,2.5,2.2v3.8h-1V41c0-1-0.6-1.4-1.5-1.4c-0.4,0-0.9,0.1-1.5,0.2
		v4.9h-1V39z"/>
	<path class="st0" d="M87.7,41.8L87.7,41.8c0-1.7,1.3-3.1,3.1-3.1c1.8,0,3.1,1.3,3.1,3v0c0,1.7-1.3,3-3.1,3
		C89,44.8,87.7,43.5,87.7,41.8z M92.8,41.8L92.8,41.8c0-1.2-0.8-2.1-2.1-2.1c-1.2,0-2.1,0.9-2.1,2.1v0c0,1.2,0.8,2.1,2.1,2.1
		C92,43.9,92.8,43,92.8,41.8z"/>
	<path class="st0" d="M94.9,39c1-0.2,1.8-0.3,2.3-0.3c0.9,0,1.6,0.3,1.9,1c0.3-0.7,1-1,2-1c1.5,0,2.3,0.7,2.3,2.2v3.8h-1V41
		c0-0.8-0.3-1.4-1.4-1.4s-1.4,0.5-1.4,1.4v3.7h-1V41c0-1-0.6-1.4-1.4-1.4c-0.4,0-0.8,0.1-1.2,0.2v4.9h-1V39z"/>
	<path class="st0" d="M104.5,41.8L104.5,41.8c0-1.7,1.3-3.1,3.1-3.1c1.8,0,3.1,1.3,3.1,3v0c0,1.7-1.3,3-3.1,3
		C105.8,44.8,104.5,43.5,104.5,41.8z M109.6,41.8L109.6,41.8c0-1.2-0.8-2.1-2.1-2.1c-1.2,0-2.1,0.9-2.1,2.1v0c0,1.2,0.8,2.1,2.1,2.1
		C108.8,43.9,109.6,43,109.6,41.8z"/>
	<path class="st0" d="M111.8,42.7v-3.7h1v3.7c0,1,0.6,1.4,1.5,1.4c0.4,0,0.9-0.1,1.5-0.2v-4.8h1v5.6c-1,0.2-2,0.3-2.6,0.3
		C112.9,44.8,111.8,44.3,111.8,42.7z"/>
	<path class="st0" d="M117.9,44.3l0.3-0.9c0.6,0.3,1.4,0.4,2,0.4c0.9,0,1.6-0.1,1.6-0.7c0-0.4-0.2-0.7-1.3-1l-0.5-0.1
		c-1.3-0.3-1.8-0.8-1.8-1.8c0-1,0.8-1.6,2.2-1.6c0.8,0,1.6,0.2,2.2,0.5l-0.3,0.8c-0.5-0.3-1.3-0.4-1.8-0.4c-0.8,0-1.3,0.2-1.3,0.6
		c0,0.4,0.4,0.6,1.3,0.9l0.4,0.1c1.4,0.4,1.9,0.9,1.9,1.8c0,1.1-0.9,1.7-2.5,1.7C119.4,44.8,118.7,44.7,117.9,44.3z"/>
	<path class="st0" d="M128.7,41.2h-2v3.5h-1v-8.4h3.2c2.1,0,2.9,1,2.9,2.4v0c0,1.2-0.6,2.2-2.1,2.4l2.4,3.5h-1.1L128.7,41.2z
		 M126.8,40.3h2.2c1.1,0,1.9-0.4,1.9-1.5v0c0-1.1-0.8-1.5-1.9-1.5h-2.2V40.3z"/>
	<path class="st0" d="M137.9,40.9v3.6c-0.8,0.1-1.8,0.2-2.5,0.2c-1.8,0-2.8-0.5-2.8-1.8v0c0-1.2,0.9-1.8,2.6-1.8c0.5,0,1,0,1.6,0.1
		V41c0-0.9-0.5-1.3-1.6-1.3c-0.6,0-1.4,0.2-2.1,0.5l0.2-1c0.5-0.2,1.4-0.4,2.1-0.4C136.9,38.8,137.9,39.3,137.9,40.9z M135.5,43.9
		c0.4,0,0.9-0.1,1.4-0.1v-1.5c-0.5-0.1-1-0.1-1.4-0.1c-1.1,0-1.8,0.2-1.8,0.9v0C133.7,43.6,134.3,43.9,135.5,43.9z"/>
	<path class="st0" d="M138.9,41.8L138.9,41.8c0-1.8,1.2-3.1,3-3.1c0.7,0,1.4,0.2,1.9,0.5l-0.4,0.8c-0.4-0.3-0.9-0.4-1.5-0.4
		c-1.3,0-2,0.9-2,2.1v0c0,1.2,0.7,2.1,2,2.1c0.5,0,1-0.1,1.5-0.4l0.4,0.8c-0.5,0.3-1.2,0.5-1.9,0.5
		C140.1,44.8,138.9,43.5,138.9,41.8z"/>
	<path class="st0" d="M144.6,37.6c0-0.3,0.2-0.5,0.6-0.5c0.4,0,0.6,0.2,0.6,0.5c0,0.4-0.2,0.5-0.6,0.5S144.6,37.9,144.6,37.6z
		 M144.7,38.9h1v5.7h-1V38.9z"/>
	<path class="st0" d="M147,39c0.9-0.2,2-0.3,2.6-0.3c1.4,0,2.5,0.5,2.5,2.2v3.8h-1V41c0-1-0.6-1.4-1.5-1.4c-0.4,0-0.9,0.1-1.5,0.2
		v4.9h-1V39z"/>
	<path class="st0" d="M158.7,39.2v5.7c0,1.6-1.1,2.2-2.5,2.2c-0.7,0-1.4-0.2-1.9-0.4l-0.2-1c0.5,0.3,1.3,0.5,1.9,0.5
		c1.2,0,1.6-0.5,1.6-1.4v-0.3c-0.4,0.1-0.8,0.1-1.2,0.1c-2.1,0-3.3-1.1-3.3-2.9v0c0-1.8,1.3-2.9,3.3-2.9
		C157.2,38.7,158.1,39,158.7,39.2z M156.4,43.6c0.3,0,0.7,0,1.2-0.2v-3.6c-0.4-0.1-0.8-0.2-1.2-0.2c-1.4,0-2.3,0.7-2.3,2v0
		C154.1,42.9,155,43.6,156.4,43.6z"/>
	<path class="st0" d="M161.8,36.3h1v7.4h4.2v1h-5.2V36.3z"/>
	<path class="st0" d="M172.9,42.1h-4.6c0.1,1,0.8,1.8,2,1.8c0.8,0,1.4-0.3,1.9-0.6l0.4,0.8c-0.5,0.4-1.3,0.7-2.4,0.7
		c-1.9,0-3.1-1.2-3.1-3v0c0-1.7,1.1-3,2.9-3c1.8,0,2.9,1.3,2.9,3.2V42.1z M168.2,41.2h3.5c-0.1-0.9-0.7-1.6-1.8-1.6
		C169,39.6,168.4,40.3,168.2,41.2z"/>
	<path class="st0" d="M178.9,40.9v3.6c-0.8,0.1-1.8,0.2-2.5,0.2c-1.8,0-2.8-0.5-2.8-1.8v0c0-1.2,0.9-1.8,2.6-1.8c0.5,0,1,0,1.6,0.1
		V41c0-0.9-0.5-1.3-1.6-1.3c-0.6,0-1.4,0.2-2.1,0.5l0.2-1c0.5-0.2,1.4-0.4,2.1-0.4C177.9,38.8,178.9,39.3,178.9,40.9z M176.5,43.9
		c0.4,0,0.9-0.1,1.4-0.1v-1.5c-0.5-0.1-1-0.1-1.4-0.1c-1.1,0-1.8,0.2-1.8,0.9v0C174.7,43.6,175.3,43.9,176.5,43.9z"/>
	<path class="st0" d="M185.5,39.2v5.7c0,1.6-1.1,2.2-2.5,2.2c-0.7,0-1.4-0.2-1.9-0.4l-0.2-1c0.5,0.3,1.3,0.5,1.9,0.5
		c1.2,0,1.6-0.5,1.6-1.4v-0.3c-0.4,0.1-0.8,0.1-1.2,0.1c-2.1,0-3.3-1.1-3.3-2.9v0c0-1.8,1.3-2.9,3.3-2.9C184,38.7,185,39,185.5,39.2
		z M183.3,43.6c0.3,0,0.7,0,1.2-0.2v-3.6c-0.4-0.1-0.8-0.2-1.2-0.2c-1.4,0-2.3,0.7-2.3,2v0C181,42.9,181.8,43.6,183.3,43.6z"/>
	<path class="st0" d="M186.7,42.7v-3.7h1v3.7c0,1,0.6,1.4,1.5,1.4c0.4,0,0.9-0.1,1.5-0.2v-4.8h1v5.6c-1,0.2-2,0.3-2.6,0.3
		C187.8,44.8,186.7,44.3,186.7,42.7z"/>
	<path class="st0" d="M198.6,42.1h-4.6c0.1,1,0.8,1.8,2,1.8c0.8,0,1.4-0.3,1.9-0.6l0.4,0.8c-0.5,0.4-1.3,0.7-2.4,0.7
		c-1.9,0-3.1-1.2-3.1-3v0c0-1.7,1.1-3,2.9-3c1.8,0,2.9,1.3,2.9,3.2V42.1z M193.9,41.2h3.5c-0.1-0.9-0.7-1.6-1.8-1.6
		C194.7,39.6,194.1,40.3,193.9,41.2z"/>
</g>
</svg>
