<svg xmlns="http://www.w3.org/2000/svg" viewBox="0 0 120 40" fill="#FFFFFF">
  <path d="M60 3c-3.8 0-7 1.5-8.7 4.3-1.2 2-1.3 4-.1.3 6.7v2.8c-.6.2-1.2.3-1.7.5-1.6.5-2.5 1.4-2.3 2.5.1.8.8 1.4 2 1.6.3.1.7.1 1 .1-.2.8-.6 1.7-1.2 2.5-1.4 1.8-3.4 3-5.8 3.3-.7.1-1.2.7-1.1 1.4 0 .3.1.6.3.8.8 1 2.7 1.6 5.5 1.8.2.4.3.9.5 1.5.1.4.5.7 1 .7h.2c.7-.1 1.5-.3 2.5-.3.8 0 1.7.2 2.7.7 1.5.7 2.8 1.1 3.9 1.1h.4c1.1 0 2.4-.4 3.9-1.1 1-.5 1.9-.7 2.7-.7 1 0 1.8.2 2.5.3h.2c.5 0 .9-.3 1-.7.2-.6.3-1.1.5-1.5 2.8-.2 4.7-.8 5.5-1.8.2-.2.3-.5.3-.8.1-.7-.4-1.3-1.1-1.4-2.4-.3-4.4-1.5-5.8-3.3-.6-.8-1-1.7-1.2-2.5.4 0 .7 0 1-.1 1.2-.2 1.9-.8 2-1.6.2-1.1-.7-2-2.3-2.5-.5-.2-1.1-.3-1.7-.5v-2.8c.1-2.7-.1-4.7-1.3-6.7C67 4.5 63.8 3 60 3z"/>
</svg>
