<svg xmlns="http://www.w3.org/2000/svg" viewBox="0 0 120 40" fill="#FFFFFF">
  <path d="M57.4 10.2c-.6-2.2-2.3-3.9-4.5-4.5C48.6 4.5 33 4.5 33 4.5s-15.6 0-19.9 1.2c-2.2.6-3.9 2.3-4.5 4.5C7.4 14.5 7.4 20 7.4 20s0 5.5 1.2 9.8c.6 2.2 2.3 3.9 4.5 4.5C17.4 35.5 33 35.5 33 35.5s15.6 0 19.9-1.2c2.2-.6 3.9-2.3 4.5-4.5 1.2-4.3 1.2-9.8 1.2-9.8s0-5.5-1.2-9.8zM27.5 26.1V13.9L40.3 20l-12.8 6.1z"/>
  <path d="M69.5 29.2l-3.8-14h3.2l1.3 5.8c.3 1.4.6 2.8.8 4.2h.1c.2-1.4.5-2.8.8-4.2l1.4-5.8h3.1l-3.9 14v6.7h-3v-6.7zm11.8-3.4c0 2.2.4 3.5 1.9 3.5.9 0 1.5-.5 1.8-1.7h2.6c-.5 2.6-2.1 3.9-4.5 3.9-3.3 0-4.8-2.2-4.8-6.5 0-4.1 1.7-6.5 4.9-6.5 3.5 0 4.6 2.5 4.6 6.1v1.2H81.3zm3.5-2c0-1.9-.3-3.2-1.7-3.2-1.3 0-1.8 1.2-1.8 3.2h3.5zm11.5-5.3h2.9v12.8c0 3.3-1.6 5.2-4.8 5.2-1.8 0-3.3-.8-3.9-2.6l2.4-1c.3.8.8 1.4 1.6 1.4 1.3 0 1.8-1 1.8-3v-1.3h-.1c-.5 1-1.5 1.6-2.6 1.6-2.5 0-3.7-2.2-3.7-6.3 0-4.3 1.4-6.5 3.8-6.5 1.2 0 2 .6 2.5 1.7h.1v-1.5zm-2 10.8c1.3 0 1.9-1.3 1.9-4.2s-.5-4.2-1.8-4.2c-1.4 0-1.9 1.4-1.9 4.2 0 2.9.5 4.2 1.8 4.2z"/>
</svg>
