<svg xmlns="http://www.w3.org/2000/svg" width="194" height="32" fill="none" viewBox="0 0 194 32">
  <path fill="#fff" d="M21.623 28.751 15.997 32l-5.63-3.249 5.625-3.25 5.631 3.25Zm8.232-20.748v16.005l-5.979 3.449a2.588 2.588 0 0 0-.94-.944L10.37 19.26v-1.951h11.26v1.95l-3.036 1.752 2.596 1.498 1.733-1.001a2.608 2.608 0 0 0 1.298-2.253v-6.5c0-.93-.497-1.788-1.298-2.251l-4.33-2.501 4.339-2.506h.005c.395-.229.716-.558.94-.944l5.98 3.45ZM8.119 4.553c.22.386.546.71.942.944l12.563 7.25v1.951H10.366v-1.952l3.03-1.75-2.595-1.5L9.068 10.5a2.607 2.607 0 0 0-1.297 2.251v6.5c0 .93.496 1.789 1.297 2.252l4.329 2.5-4.337 2.506a2.594 2.594 0 0 0-.942.945l-5.978-3.45v-16l5.978-3.45ZM126.902 16.07c0 2.228 1.246 3.675 3.712 3.675 2.467 0 3.693-1.442 3.693-3.675V9.596h3.732v6.766c0 3.894-2.653 6.456-7.425 6.456-4.771 0-7.444-2.562-7.444-6.456V9.596h3.732v6.475Zm-78.026-.329 4.848-6.146h3.97v12.802h-3.717v-8.173l-5.101 6.25h-.182l-5.1-6.25v8.173H39.99V9.596h4.075l4.811 6.146Zm24.942-3.293h-9.782v2.105h8.066v2.724h-8.066v2.267h9.983v2.853H60.362V9.596h13.456v2.853Zm15.41.13h-5.32v9.82h-3.733v-9.82h-5.282V9.595h14.335v2.982Zm15.168 9.82h-3.969l-1.207-2.454h-7.025l-1.207 2.453h-3.913l6.618-12.802h4.085l6.618 12.802Zm4.883-8.032h7.678v-4.77h3.731v12.802h-3.731V17.44h-7.678v4.958h-3.732V9.596h3.732v4.771Zm40.126 1.375 4.844-6.146h3.971v12.802h-3.712v-8.173l-5.103 6.25h-.185l-5.102-6.25v8.173h-3.602V9.596h4.08l4.809 6.146Zm27.321 6.656h-3.971l-1.207-2.453h-7.025l-1.207 2.453h-3.913l6.619-12.802h4.085l6.619 12.802Zm12.688-4.976V9.596h3.603v12.802h-3.274l-8.265-8.413v8.413h-3.603V9.596h3.951l7.588 7.826Zm-95.94-.129h4.448l-2.215-4.533-2.233 4.533Zm72.33 0h4.446l-2.214-4.533-2.232 4.533ZM21.623 3.25l-5.626 3.249-5.63-3.249L15.996 0l5.626 3.25Z"/>
</svg>
