<svg xmlns="http://www.w3.org/2000/svg" xmlns:xlink="http://www.w3.org/1999/xlink" style="display:none">
<!--
  BDS Platform Icon Sprite
  Usage: <svg class="pi" width="20" height="20"><use href="/assets/icons/platforms.svg#icon-youtube"/></svg>
  Available icons: icon-youtube, icon-spotify, icon-apple-podcasts, icon-instagram, icon-x, icon-tiktok, icon-linkedin, icon-discord, icon-threads
  All icons use brand-accurate colors. Use currentColor for monochrome variants.
-->

  <symbol id="icon-youtube" viewBox="0 0 24 24">
    <rect x="2.2" y="5.3" width="19.6" height="13.4" rx="3.3" fill="#FF0033"/>
    <path d="M10 9.25L15.4 12 10 14.75V9.25z" fill="#fff"/>
  </symbol>

  <symbol id="icon-spotify" viewBox="0 0 24 24">
    <path fill="#1DB954" d="M12 0C5.4 0 0 5.4 0 12s5.4 12 12 12 12-5.4 12-12S18.66 0 12 0zm5.521 17.34c-.24.359-.66.48-1.021.24-2.82-1.74-6.36-2.101-10.561-1.141-.418.122-.779-.179-.899-.539-.12-.421.18-.78.54-.9 4.56-1.021 8.52-.6 11.64 1.32.42.18.479.659.301 1.02zm1.44-3.3c-.301.42-.841.6-1.262.3-3.239-1.98-8.159-2.58-11.939-1.38-.479.12-1.02-.12-1.14-.6-.12-.48.12-1.021.6-1.141C9.6 9.9 15 10.561 18.72 12.84c.361.181.54.78.241 1.2zm.12-3.36C15.24 8.4 8.82 8.16 5.16 9.301c-.6.179-1.2-.181-1.38-.721-.18-.601.18-1.2.72-1.381 4.26-1.26 11.28-1.02 15.721 1.621.539.3.719 1.02.419 1.56-.299.421-1.02.599-1.559.3z"/>
  </symbol>

  <symbol id="icon-apple-podcasts" viewBox="0 0 24 24">
    <path fill="#872EC4" d="M12 0C5.4 0 0 5.4 0 12s5.4 12 12 12 12-5.4 12-12S18.6 0 12 0zm-.03 3.6A8.38 8.38 0 0 1 20.4 12a8.33 8.33 0 0 1-2.52 5.97.59.59 0 0 1-.84-.84A7.15 7.15 0 0 0 19.2 12a7.2 7.2 0 1 0-14.4 0c0 2 .83 3.82 2.16 5.13a.59.59 0 0 1-.84.84A8.38 8.38 0 0 1 11.97 3.6zM12 7.2a4.8 4.8 0 0 1 3.18 8.4.59.59 0 0 1-.78-.9A3.6 3.6 0 1 0 8.4 12c0 1.07.47 2.04 1.2 2.7a.59.59 0 0 1-.78.9A4.8 4.8 0 0 1 12 7.2zm0 3a1.8 1.8 0 0 1 .9 3.36v3.84a.9.9 0 0 1-1.8 0v-3.84A1.8 1.8 0 0 1 12 10.2z"/>
  </symbol>

  <symbol id="icon-instagram" viewBox="0 0 24 24">
    <defs>
      <linearGradient id="ig-g" x1="0" x2="1" y1="1" y2="0">
        <stop offset="0%" stop-color="#f58529"/>
        <stop offset="45%" stop-color="#dd2a7b"/>
        <stop offset="100%" stop-color="#8134af"/>
      </linearGradient>
    </defs>
    <rect x="2" y="2" width="20" height="20" rx="5.5" fill="url(#ig-g)"/>
    <rect x="6.2" y="6.2" width="11.6" height="11.6" rx="3.8" fill="none" stroke="#fff" stroke-width="1.9"/>
    <circle cx="12" cy="12" r="2.8" fill="none" stroke="#fff" stroke-width="1.9"/>
    <circle cx="16.9" cy="7.8" r="1.1" fill="#fff"/>
  </symbol>

  <symbol id="icon-x" viewBox="0 0 24 24">
    <path fill="currentColor" d="M18.9 1.15h3.68l-8.03 9.18L24 22.85h-7.42l-5.79-7.58-6.63 7.58H.47l8.59-9.83L0 1.15h7.6l5.24 6.93L18.9 1.15Zm-1.29 19.49h2.04L6.49 3.24H4.3l13.31 17.4Z"/>
  </symbol>

  <symbol id="icon-tiktok" viewBox="0 0 24 24">
    <path fill="currentColor" d="M19.59 6.69a4.83 4.83 0 0 1-3.77-4.25V2h-3.45v13.67a2.89 2.89 0 0 1-2.88 2.5 2.89 2.89 0 0 1-2.89-2.89 2.89 2.89 0 0 1 2.89-2.89c.28 0 .54.04.79.1v-3.5a6.37 6.37 0 0 0-.79-.05A6.34 6.34 0 0 0 3.15 15a6.34 6.34 0 0 0 6.34 6.34 6.34 6.34 0 0 0 6.34-6.34V8.75a8.18 8.18 0 0 0 4.76 1.52V6.84a4.85 4.85 0 0 1-1-.15Z"/>
  </symbol>

  <symbol id="icon-linkedin" viewBox="0 0 24 24">
    <rect x="2" y="2" width="20" height="20" rx="3.2" fill="#0A66C2"/>
    <circle cx="8" cy="8.05" r="1.35" fill="#fff"/>
    <path fill="#fff" d="M6.92 10.1h2.2v7h-2.2v-7Zm3.45 0h2.1v.96c.3-.53 1.05-1.14 2.23-1.14 2.38 0 2.82 1.56 2.82 3.58v3.6h-2.2v-3.2c0-.76-.02-1.74-1.06-1.74-1.06 0-1.22.83-1.22 1.68v3.26h-2.67V10.1Z"/>
  </symbol>

  <symbol id="icon-discord" viewBox="0 0 24 24">
    <path fill="#5865F2" d="M20.317 4.37a19.79 19.79 0 0 0-4.885-1.515.074.074 0 0 0-.079.037c-.21.375-.444.864-.608 1.25a18.27 18.27 0 0 0-5.487 0 12.64 12.64 0 0 0-.617-1.25.077.077 0 0 0-.079-.037A19.74 19.74 0 0 0 3.677 4.37a.07.07 0 0 0-.032.027C.533 9.046-.32 13.58.099 18.057a.082.082 0 0 0 .031.057 19.9 19.9 0 0 0 5.993 3.03.078.078 0 0 0 .084-.028c.462-.63.874-1.295 1.226-1.994a.076.076 0 0 0-.041-.106 13.1 13.1 0 0 1-1.872-.892.077.077 0 0 1-.008-.128c.12-.09.246-.19.373-.292a.074.074 0 0 1 .077-.01c3.928 1.793 8.18 1.793 12.062 0a.074.074 0 0 1 .078.01c.12.098.246.198.373.292a.077.077 0 0 1-.006.127 12.3 12.3 0 0 1-1.873.892.077.077 0 0 0-.041.107c.36.698.772 1.362 1.225 1.993a.076.076 0 0 0 .084.028 19.84 19.84 0 0 0 6.002-3.03.077.077 0 0 0 .032-.054c.5-5.177-.838-9.674-3.549-13.66a.061.061 0 0 0-.031-.03zM8.02 15.33c-1.183 0-2.157-1.085-2.157-2.419 0-1.333.956-2.419 2.157-2.419 1.21 0 2.176 1.095 2.157 2.42 0 1.333-.956 2.418-2.157 2.418zm7.975 0c-1.183 0-2.157-1.085-2.157-2.419 0-1.333.955-2.419 2.157-2.419 1.21 0 2.176 1.095 2.157 2.42 0 1.333-.946 2.418-2.157 2.418z"/>
  </symbol>

  <symbol id="icon-threads" viewBox="0 0 192 192">
    <path fill="currentColor" d="M141.537 88.988c-.83-.396-1.67-.777-2.518-1.143-1.482-27.307-16.403-42.94-41.457-43.1h-.134c-14.986 0-27.449 6.396-35.12 17.036l13.779 9.452c5.73-8.695 14.724-10.548 21.348-10.548h.036c8.25.053 14.474 2.451 18.503 7.129 2.932 3.405 4.893 8.111 5.864 14.05-7.314-1.243-15.224-1.626-23.68-1.14-24.18 1.371-39.494 15.264-38.465 34.568.521 9.792 5.399 18.216 13.735 23.719 7.047 4.652 16.124 6.927 25.557 6.412 12.458-.683 22.23-5.436 29.049-14.127 5.178-6.6 8.453-15.153 9.899-25.93 5.937 3.583 10.337 8.298 12.767 13.966 4.132 9.635 4.373 25.468-8.546 38.376-11.319 11.308-24.925 16.2-45.488 16.351-22.809-.169-40.06-7.484-51.275-21.742C34.236 139.966 28.808 120.682 28.605 96c.203-24.682 5.631-43.966 16.134-57.317C55.954 24.425 73.205 17.11 96.013 16.94c22.975.17 40.526 7.488 52.171 21.816 5.71 7.025 10.015 15.86 12.853 26.152l16.147-4.308c-3.44-12.68-8.853-23.604-16.222-32.628C147.036 9.607 125.202.195 97.07 0h-.057c-28.086.194-49.675 9.642-64.169 28.08C19.882 44.486 13.224 67.316 13.001 95.932l-.001.068.001.068c.224 28.616 6.882 51.446 19.851 63.852 14.494 18.438 36.083 27.886 64.169 28.08h.057c25.03-.172 42.624-6.708 57.118-21.189 19.081-19.067 18.51-42.814 12.26-57.232-4.484-10.454-13.033-18.945-24.868-24.591zM98.44 129.507c-10.44.588-21.286-4.098-21.821-14.135-.394-7.442 5.298-15.746 22.464-16.735 1.966-.113 3.895-.169 5.79-.169 6.235 0 12.068.606 17.371 1.765-2.022 24.702-13.424 28.713-23.804 29.274z"/>
  </symbol>

</svg>
