<svg xmlns="http://www.w3.org/2000/svg" viewBox="0 0 24 24" fill="#FFFFFF">
  <path d="M5.34 0A5.328 5.328 0 000 5.34v13.32A5.328 5.328 0 005.34 24h13.32A5.328 5.328 0 0024 18.66V5.34A5.328 5.328 0 0018.66 0H5.34zm6.525 2.568c2.336 0 4.448.902 6.056 2.587 1.36 1.425 2.153 3.26 2.373 5.468.044.44-.298.818-.738.818h-.028a.74.74 0 01-.738-.693c-.18-1.896-.86-3.449-2.014-4.659C15.354 4.594 13.56 3.81 11.544 3.81c-1.86 0-3.553.663-4.893 1.882-1.972 1.795-2.906 4.658-2.502 7.4a.741.741 0 01-.636.837.744.744 0 01-.837-.636c-.472-3.2.622-6.53 2.917-8.62 1.533-1.396 3.484-2.106 5.672-2.106zm.13 3.548c1.528 0 2.903.553 3.986 1.603 1.03 1 1.616 2.37 1.7 3.967.016.306.008.62-.024.94a.74.74 0 01-.82.65.74.74 0 01-.65-.82c.025-.264.033-.522.02-.776-.065-1.259-.514-2.33-1.305-3.1-.83-.807-1.907-1.22-3.108-1.196-1.107.022-2.133.44-2.974 1.21-.97.89-1.532 2.14-1.592 3.485-.024.533.012 1.08.105 1.627a.74.74 0 01-.598.858.74.74 0 01-.86-.598 9.386 9.386 0 01-.12-1.878c.076-1.708.786-3.276 2.003-4.393 1.04-.955 2.353-1.512 3.78-1.564.153-.006.305-.008.458-.014zm-.257 4.078c.66 0 1.226.376 1.508.924l1.696 6.14c.262.95-.216 1.94-1.167 2.2a1.756 1.756 0 01-2.199-1.167l-.044-.16h-1.552l-.044.16a1.756 1.756 0 01-2.199 1.166 1.756 1.756 0 01-1.167-2.199l1.695-6.14a1.693 1.693 0 011.508-.924h.965zm-.483 1.48a.698.698 0 100 1.396.698.698 0 000-1.396z"/>
</svg>
