<?xml version="1.0" encoding="UTF-8"?>
<svg version="1.1" xmlns="http://www.w3.org/2000/svg" width="260" height="152">
<path d="M0 0 C0.95947037 -0.00335861 1.91894073 -0.00671722 2.90748596 -0.01017761 C6.09149456 -0.01970653 9.27545067 -0.02163174 12.45947266 -0.02270508 C14.66663637 -0.02591645 16.87379987 -0.02928043 19.08096313 -0.03279114 C23.71299737 -0.03878737 28.34501294 -0.04063055 32.97705078 -0.04003906 C38.917964 -0.03993744 44.85875768 -0.05358717 50.79964256 -0.07081127 C55.36006217 -0.08192008 59.92045279 -0.08395861 64.48088455 -0.08342934 C66.67137692 -0.08461124 68.86187 -0.08904474 71.05234909 -0.0967617 C74.11441202 -0.10653837 77.17621429 -0.10369261 80.23828125 -0.09765625 C81.60058113 -0.10608551 81.60058113 -0.10608551 82.99040222 -0.11468506 C84.2438166 -0.10839333 84.2438166 -0.10839333 85.52255249 -0.10197449 C86.24632772 -0.10251925 86.97010296 -0.10306402 87.71581078 -0.1036253 C90.10904153 0.18940446 91.70214004 0.88269527 93.74853516 2.14526367 C95.15311253 4.95441841 94.99748673 7.03336901 94.74853516 10.14526367 C93.7820282 12.31219482 93.7820282 12.31219482 91.74853516 14.14526367 C88.69881126 14.52595535 86.01193232 14.65098739 82.96264648 14.59936523 C81.61599663 14.60024139 81.61599663 14.60024139 80.24214172 14.60113525 C77.27122489 14.5983459 74.30130822 14.56721368 71.33056641 14.53588867 C69.27219694 14.52842931 67.21382038 14.52273494 65.15544128 14.51873779 C59.73504058 14.5034575 54.31506789 14.46415484 48.89483643 14.41992188 C43.36500845 14.37902093 37.83511138 14.36073784 32.30517578 14.34057617 C21.45277407 14.29766308 10.60069019 14.22938262 -0.25146484 14.14526367 C-0.25146484 17.11526367 -0.25146484 20.08526367 -0.25146484 23.14526367 C0.84212341 23.13638123 1.93571167 23.12749878 3.06243896 23.11834717 C13.3624361 23.03730264 23.66236865 22.9773181 33.96261215 22.93801498 C39.25825019 22.91712959 44.55363107 22.88879436 49.84912109 22.84350586 C54.95844301 22.80008239 60.0675174 22.77613374 65.17700958 22.7657547 C67.12750394 22.75835706 69.07798458 22.74391134 71.02837372 22.72234344 C73.75798443 22.69335595 76.48656902 22.68930571 79.21630859 22.69116211 C80.02479248 22.67678101 80.83327637 22.6623999 81.66625977 22.64758301 C85.24341013 22.67395163 87.32891297 22.83652255 90.25054932 24.98614502 C92.29868749 27.93822454 92.33511668 29.62577451 91.74853516 33.14526367 C90.25054932 35.30438232 90.25054932 35.30438232 87.74853516 37.14526367 C84.77741957 37.51920944 82.18339252 37.65214296 79.21630859 37.59936523 C77.92796112 37.60024139 77.92796112 37.60024139 76.61358643 37.60113525 C73.77794821 37.59835112 70.94336447 37.56724385 68.10791016 37.53588867 C66.14065119 37.52842745 64.17338478 37.52273396 62.20611572 37.51873779 C57.0306747 37.50347216 51.85568338 37.46418216 46.68041992 37.41992188 C41.39849938 37.37898932 36.11650612 37.36073107 30.83447266 37.34057617 C20.47229601 37.29768896 10.11045299 37.22942622 -0.25146484 37.14526367 C0.07853516 39.78526367 0.40853516 42.42526367 0.74853516 45.14526367 C1.88192825 45.1489093 3.01532135 45.15255493 4.18305969 45.15631104 C14.85150285 45.19321312 25.51965609 45.25093311 36.18787861 45.32916641 C41.67287221 45.36871689 47.15770344 45.40086816 52.64282227 45.41625977 C57.93387656 45.43137655 63.2244847 45.46573315 68.51534081 45.51357269 C70.53635981 45.52843801 72.5574425 45.53630762 74.57851601 45.53714752 C77.40431205 45.53950348 80.22886121 45.56647162 83.05444336 45.59936523 C84.31464043 45.59181969 84.31464043 45.59181969 85.60029602 45.5841217 C91.24525664 45.68614307 91.24525664 45.68614307 93.76847839 47.98797607 C95.09595558 50.91000077 95.15346279 52.97333054 94.74853516 56.14526367 C93.46773911 57.80462742 93.46773911 57.80462742 91.74853516 59.14526367 C88.7278199 59.44691016 85.91254538 59.56518906 82.89013672 59.54931641 C81.98410706 59.55617966 81.07807739 59.56304291 80.14459229 59.57011414 C77.14262309 59.58844822 74.14117346 59.58453391 71.13916016 59.57885742 C69.05271229 59.58341734 66.96626594 59.58872234 64.87982178 59.59474182 C60.50168772 59.60368688 56.12373592 59.60123543 51.74560547 59.59130859 C46.14224942 59.57984045 40.53952557 59.59999047 34.93625259 59.62922573 C30.62445085 59.64760173 26.31280002 59.64729205 22.00096893 59.64158821 C19.93575913 59.64143504 17.87053907 59.64747559 15.80536652 59.65987968 C12.91134976 59.67480711 10.01849294 59.66409803 7.12451172 59.64697266 C6.27542236 59.65664062 5.42633301 59.66630859 4.55151367 59.67626953 C-1.18450191 59.60542362 -4.51680044 58.41786528 -9.25146484 55.14526367 C-14.17201383 49.3920064 -14.41601039 42.83360386 -14.45458984 35.61791992 C-14.46028992 34.79198837 -14.46598999 33.96605682 -14.47186279 33.11509705 C-14.48129277 31.37101516 -14.4878388 29.62691561 -14.49169922 27.8828125 C-14.50141787 25.22063101 -14.53246479 22.5592177 -14.56396484 19.8972168 C-14.57049427 18.19995574 -14.57574498 16.50268918 -14.57958984 14.80541992 C-14.59193665 14.01257095 -14.60428345 13.21972198 -14.61700439 12.40284729 C-14.5986362 7.82778093 -14.20737905 4.86894197 -11.25146484 1.14526367 C-7.79616496 -0.58238627 -3.80332364 -0.00188941 0 0 Z " fill="#000000" transform="translate(165.25146484375,92.854736328125)"/>
<path d="M0 0 C1.06402794 -0.01226624 1.06402794 -0.01226624 2.14955139 -0.02478027 C4.49723477 -0.04959146 6.84485772 -0.06614167 9.19262695 -0.08056641 C9.99630014 -0.08589008 10.79997334 -0.09121376 11.62800026 -0.09669876 C15.88415192 -0.12341526 20.14027444 -0.14279257 24.39648438 -0.15722656 C27.91074747 -0.17055017 31.42442776 -0.19837491 34.93847656 -0.23925781 C39.18898086 -0.28870399 43.43895772 -0.31336237 47.68973732 -0.32045364 C49.3048052 -0.32714634 50.91986223 -0.34231669 52.53476524 -0.36634445 C68.81801845 -0.59474379 68.81801845 -0.59474379 74.9934082 5.19287109 C82.06983597 12.15807799 84.28160999 19.93538357 84.4309082 29.63037109 C84.37914717 36.22600288 83.81049809 41.62014639 79.9934082 47.19287109 C79.26444336 48.26794922 79.26444336 48.26794922 78.52075195 49.36474609 C74.26133771 54.88285249 69.68627662 57.43604026 62.9934082 59.19287109 C57.89959763 59.74633215 52.82959979 59.75772624 47.7121582 59.72412109 C46.24824772 59.72682296 44.78433899 59.73071113 43.32043457 59.73571777 C40.26772806 59.74158031 37.21549303 59.73315618 34.1628418 59.71435547 C30.27609464 59.69156705 26.39045277 59.70470782 22.50374603 59.72864532 C19.48541131 59.74319217 16.46733288 59.73845708 13.44898987 59.72813416 C12.01705286 59.7254913 10.58509155 59.72864933 9.15318298 59.73805237 C0.00345962 59.78497056 -8.8723831 59.6288441 -16.10876465 53.37658691 C-22.9069167 46.44081476 -25.37008425 38.7169745 -25.5065918 29.13037109 C-25.4373017 22.71842988 -24.39750689 17.66057502 -21.0065918 12.19287109 C-20.4084668 11.12037109 -19.8103418 10.04787109 -19.1940918 8.94287109 C-13.86605095 2.2447626 -8.46810101 0.08482815 0 0 Z M-9.4440918 18.75537109 C-12.10516472 24.60973153 -12.90391042 30.37379806 -10.8815918 36.56787109 C-9.31551689 40.12386687 -7.33292332 42.11391389 -4.0065918 44.19287109 C-0.81832562 45.25562649 1.48738173 45.33239598 4.83837891 45.35400391 C6.6408886 45.36841522 6.6408886 45.36841522 8.47981262 45.38311768 C9.77980698 45.38736755 11.07980133 45.39161743 12.41918945 45.39599609 C13.76816306 45.40175102 15.11713665 45.40750871 16.46611023 45.41326904 C19.2947935 45.4237699 22.12344843 45.42961831 24.95214844 45.43310547 C28.56687081 45.43858355 32.18121524 45.46260025 35.79581928 45.49107742 C38.58317641 45.50975489 41.37044349 45.51491214 44.15785789 45.51644135 C46.13533774 45.52091944 48.11276929 45.53954203 50.09016418 45.55841064 C51.9068586 45.553909 51.9068586 45.553909 53.76025391 45.54931641 C55.35218315 45.55478485 55.35218315 45.55478485 56.97627258 45.56036377 C61.76024693 44.97766688 65.00820426 43.2313293 68.3059082 39.75537109 C71.32746366 35.16708317 71.55202759 30.62671423 70.9934082 25.19287109 C69.35599638 20.02209693 67.59699866 17.11222114 62.9934082 14.19287109 C59.75848338 13.13393995 56.73233798 13.05494871 53.34204102 13.03173828 C52.20696106 13.02213074 51.0718811 13.01252319 49.90240479 13.00262451 C48.67946716 12.99837463 47.45652954 12.99412476 46.1965332 12.98974609 C44.30242706 12.98119598 44.30242706 12.98119598 42.37005615 12.97247314 C39.69694417 12.96302577 37.02394437 12.95612771 34.35083008 12.95263672 C30.94370853 12.94716522 27.53698926 12.92315837 24.12999344 12.89466476 C20.86053767 12.87143307 17.59105992 12.86958152 14.3215332 12.86474609 C13.1066925 12.85239929 11.89185181 12.84005249 10.64019775 12.82733154 C2.99719403 12.84731728 -3.87121688 12.89670772 -9.4440918 18.75537109 Z " fill="#000000" transform="translate(176.006591796875,-0.19287109375)"/>
<path d="M0 0 C6.4424606 3.75461583 10.91182568 10.17561871 15.4765625 15.93359375 C18.91855745 20.11620371 22.60863332 24.03911799 26.31420898 27.98730469 C30.30701775 32.24297782 34.20970795 36.56191258 38 41 C42.23232866 40.51575187 43.95541633 38.23104037 46.6875 35.125 C47.12682861 34.62959717 47.56615723 34.13419434 48.01879883 33.6237793 C50.8329212 30.42464649 53.52328628 27.13772129 56.1875 23.8125 C60.21343594 18.8252544 64.49843946 14.1190983 68.875 9.4375 C69.53008545 8.73407471 70.1851709 8.03064941 70.86010742 7.3059082 C71.48119385 6.64679443 72.10228027 5.98768066 72.7421875 5.30859375 C73.2976123 4.71876709 73.85303711 4.12894043 74.42529297 3.52124023 C78.56231752 -0.4753179 81.84158986 -0.47771286 87.328125 -0.390625 C90 0 90 0 93.125 2.3125 C95.58832707 5.84326879 96.12635599 8.39228966 96.17700195 12.59155273 C96.18983719 13.51939072 96.20267242 14.4472287 96.21589661 15.40318298 C96.22328354 16.40321854 96.23067047 17.40325409 96.23828125 18.43359375 C96.246353 19.46307632 96.25442474 20.4925589 96.26274109 21.55323792 C96.27657204 23.73119425 96.28729861 25.90917216 96.29516602 28.0871582 C96.31241541 31.42115035 96.35631516 34.75416018 96.40039062 38.08789062 C96.41051449 40.20311771 96.41903155 42.31835321 96.42578125 44.43359375 C96.44328934 45.43160507 96.46079742 46.42961639 96.47883606 47.45787048 C96.45725454 54.32565939 96.45725454 54.32565939 94.19604492 57.66040039 C92 59 92 59 88.4375 59 C85 58 85 58 83.31713867 56.42675781 C81.49388084 53.06750242 81.52126133 49.90379601 81.48828125 46.171875 C81.47033005 45.42286926 81.45237885 44.67386353 81.43388367 43.90216064 C81.37985457 41.51816376 81.34590997 39.1343662 81.3125 36.75 C81.27932025 35.13018064 81.24482997 33.51038756 81.20898438 31.890625 C81.12413284 27.92722734 81.05728711 23.96388803 81 20 C73.7917428 27.59789272 66.72182996 35.19560412 60.15234375 43.35546875 C57.75350251 46.30286533 55.3116141 49.1994733 52.8125 52.0625 C52.03519531 52.96097656 51.25789063 53.85945313 50.45703125 54.78515625 C47.1517654 57.76462483 44.12269117 58.79210757 39.7265625 59.22265625 C32.98023887 58.70853122 29.48522704 55.90326761 25 51 C22.80770123 48.40529075 20.67899067 45.76939434 18.56640625 43.109375 C15.1289484 38.86042911 11.3571331 34.91657729 7.60473633 30.94702148 C5.03579613 28.2225793 2.54148366 25.48284702 0.171875 22.58203125 C-0.54484375 21.72996094 -1.2615625 20.87789062 -2 20 C-2.33 20 -2.66 20 -3 20 C-3.0093457 21.03930664 -3.01869141 22.07861328 -3.02832031 23.14941406 C-3.06824123 27.01133838 -3.13400478 30.8724678 -3.20751953 34.73388672 C-3.23571718 36.40403011 -3.25693779 38.07430665 -3.27099609 39.74462891 C-3.29244337 42.14815372 -3.33909845 44.55007983 -3.390625 46.953125 C-3.39246796 48.0705307 -3.39246796 48.0705307 -3.39434814 49.21051025 C-3.49157677 52.66416248 -3.76772925 54.6780765 -5.81152344 57.51074219 C-8 59 -8 59 -11.625 58.875 C-15 58 -15 58 -17 56 C-17.26069641 53.9329071 -17.26069641 53.9329071 -17.2746582 51.35424805 C-17.28419022 50.38952072 -17.29372223 49.4247934 -17.30354309 48.43083191 C-17.30263168 47.38502457 -17.30172028 46.33921722 -17.30078125 45.26171875 C-17.30506638 44.18880081 -17.3093515 43.11588287 -17.31376648 42.01045227 C-17.31951823 39.73654893 -17.32000386 37.46262719 -17.31567383 35.1887207 C-17.31252228 31.71208125 -17.33593397 28.23629925 -17.36132812 24.75976562 C-17.36360189 22.55208441 -17.36430426 20.3444009 -17.36328125 18.13671875 C-17.372491 17.0969841 -17.38170074 16.05724945 -17.39118958 14.98600769 C-17.33284999 5.86168761 -17.33284999 5.86168761 -14 2 C-9.4649565 -1.02336234 -5.29918663 -1.01852646 0 0 Z " fill="#000000" transform="translate(17,0)"/>
<path d="M0 0 C1.7109375 1.13671875 1.7109375 1.13671875 3.375 2.6875 C4.06335937 3.32042969 4.75171875 3.95335938 5.4609375 4.60546875 C6.29882812 5.39566406 7.13671875 6.18585938 8 7 C9.09565229 8.01768325 10.19206598 9.03454713 11.2890625 10.05078125 C16.67850229 15.05438203 22.03725438 20.09043412 27.38671875 25.13671875 C28.10537109 25.81347656 28.82402344 26.49023438 29.56445312 27.1875 C30.95160423 28.49425505 32.33709551 29.8027749 33.72070312 31.11328125 C35.46677435 32.7578988 37.22849897 34.38287815 39 36 C39.70769531 36.65613281 40.41539063 37.31226563 41.14453125 37.98828125 C43.01116168 39.21022404 43.01116168 39.21022404 45.48046875 38.9140625 C48.44819056 37.83740063 50.02199329 36.54752324 52.3125 34.375 C53.16457031 33.57964844 54.01664062 32.78429687 54.89453125 31.96484375 C55.93055699 30.97747403 56.96561028 29.98908351 58 29 C60.1027937 26.99834681 62.20781688 24.99916912 64.31713867 23.00439453 C65.76388095 21.63451195 67.20553186 20.25923079 68.6418457 18.87841797 C69.30659912 18.24693848 69.97135254 17.61545898 70.65625 16.96484375 C71.25244141 16.3937085 71.84863281 15.82257324 72.46289062 15.23413086 C74 14 74 14 76 14 C76.33 13.01 76.66 12.02 77 11 C78.86179851 9.12487119 80.86030159 7.48043597 82.88671875 5.78515625 C84.95582183 4.08495367 84.95582183 4.08495367 86.58203125 2.43359375 C89.33232969 -0.22578573 91.43312508 -1.3573429 95.1875 -1.5625 C99 -1 99 -1 101 0.625 C102.32615779 3.77462475 102.54339431 5.60378555 102 9 C99.07209425 13.30036157 95.44554717 16.4581581 91.50390625 19.81640625 C88.26734195 22.63893269 85.13691233 25.56765087 82 28.5 C77.64030142 32.57139222 73.24160361 36.57051681 68.71875 40.4609375 C66.9189952 42.07253612 65.24357983 43.76543126 63.5625 45.5 C52.56750356 56.69766919 52.56750356 56.69766919 45.3125 57.3125 C40.55987865 57.260464 37.84080289 55.74343063 34 53 C33.67 52.01 33.34 51.02 33 50 C31.68367206 49.30035511 30.34776319 48.63699027 29 48 C27.359375 46.51953125 27.359375 46.51953125 25.75 44.8125 C23.2797959 42.26329151 20.75845477 39.87180507 18.0625 37.5625 C15.25423653 35.14382221 12.60029407 32.64100317 10 30 C5.28265975 25.21778474 0.32066618 20.78884684 -5 16.6875 C-5.66 16.130625 -6.32 15.57375 -7 15 C-7 14.34 -7 13.68 -7 13 C-7.99 12.67 -8.98 12.34 -10 12 C-11.52491998 8.95016004 -11.23562548 6.3576631 -11 3 C-8.10289787 -1.13871732 -4.60494409 -1.33301013 0 0 Z " fill="#000000" transform="translate(11,95)"/>
</svg>
